<?xml version="1.0" encoding="utf-8"?>
<!-- Generator: Adobe Illustrator 28.0.0, SVG Export Plug-In . SVG Version: 6.00 Build 0)  -->
<svg version="1.1" id="Layer_1" xmlns="http://www.w3.org/2000/svg" xmlns:xlink="http://www.w3.org/1999/xlink" x="0px" y="0px"
	 viewBox="0 0 837 1243.2" style="enable-background:new 0 0 837 1243.2;" xml:space="preserve">
<style type="text/css">
	.st0{fill:#CCCCCC;}
	.st1{fill:#3D4042;}
</style>
<path class="st0" d="M677.5,1072.4H159.4c-28.7,0-52.1-23.3-52.1-52V502.3c0-28.7,23.3-52.1,52.1-52.1h518.1c28.7,0,52,23.3,52,52.1
	v518.1C729.6,1049,706.2,1072.4,677.5,1072.4z M159.4,480.2c-12.2,0-22.1,9.9-22.1,22.1v518.1c0,12.2,9.9,22,22.1,22h518.1
	c12.2,0,22-9.9,22-22V502.3c0-12.2-9.9-22.1-22-22.1H159.4z"/>
<path class="st1" d="M507.2,963h16.1v16.1v16.1h-16.1h-16.1v-16.1V963H475v-16.1h16.1h16.1V963z M442.7,963h-16.1v-16.1h-16.1V963
	h-16.1h-16.1v16.1H362v16.1h16.1h16.1h16.1v-16.1h16.1h16.1h16.1v16.1H475v-16.1V963h-16.1H442.7z M249.1,608h16.1v-16.1v-16.1
	v-16.1h-16.1h-16.1h-16.1v16.1v16.1V608h16.1H249.1z M442.7,914.6v16.1v16.1h16.1v-16.1H475v-16.1v-16.1h-16.1v16.1H442.7z
	 M362,833.9v16.1h16.1v-16.1H362z M200.6,850.1h-16.1v16.1h16.1V850.1z M442.7,898.5h16.1v-16.1h-16.1V898.5z M313.6,833.9v-16.1
	h-16.1h-16.1v16.1h16.1v16.1h-16.1v16.1h16.1h16.1v-16.1V833.9z M200.6,640.3h-16.1v-16.1V608v-16.1v-16.1v-16.1v-16.1v-16.1h16.1
	h16.1h16.1h16.1h16.1h16.1h16.1v16.1v16.1v16.1v16.1V608v16.1v16.1h-16.1h-16.1h-16.1h-16.1h-16.1H200.6z M200.6,624.1h16.1h16.1
	h16.1h16.1h16.1V608v-16.1v-16.1v-16.1v-16.1h-16.1h-16.1h-16.1h-16.1h-16.1v16.1v16.1v16.1V608V624.1z M216.8,801.6h-16.1v16.1
	h16.1V801.6z M571.8,995.3h16.1v-16.1h-16.1V995.3z M604,850.1v-16.1h-16.1v16.1H604z M281.3,882.3h16.1v16.1v16.1v16.1v16.1V963
	v16.1v16.1h-16.1h-16.1h-16.1h-16.1h-16.1h-16.1h-16.1v-16.1V963v-16.1v-16.1v-16.1v-16.1v-16.1h16.1h16.1h16.1h16.1h16.1H281.3z
	 M281.3,898.5h-16.1h-16.1h-16.1h-16.1h-16.1v16.1v16.1v16.1V963v16.1h16.1h16.1h16.1h16.1h16.1V963v-16.1v-16.1v-16.1V898.5z
	 M249.1,801.6h-16.1v16.1h16.1V801.6z M539.5,995.3h16.1v-16.1h-16.1V995.3z M232.9,850.1v16.1h16.1h16.1v-16.1v-16.1h-16.1h-16.1
	v-16.1h-16.1v16.1h-16.1v16.1h16.1H232.9z M184.5,817.8v16.1h16.1v-16.1H184.5z M345.9,963v-16.1h-16.1h-16.1V963v16.1v16.1h16.1
	v-16.1h16.1H362V963H345.9z M620.2,979.1v16.1h16.1h16.1v-16.1h-16.1V963h-16.1V979.1z M539.5,963v-16.1h-16.1V963H539.5z
	 M232.9,914.6h-16.1v16.1v16.1V963h16.1h16.1h16.1v-16.1v-16.1v-16.1h-16.1H232.9z M345.9,850.1h-16.1v16.1h-16.1v16.1v16.1v16.1
	v16.1h16.1v-16.1v-16.1v-16.1h16.1v-16.1V850.1z M362,640.3v-16.1h-16.1v16.1h-16.1v-16.1h-16.1v16.1v16.1h-16.1h-16.1h-16.1h-16.1
	v16.1h16.1v16.1h16.1v-16.1h16.1v16.1h-16.1v16.1h16.1h16.1h16.1h16.1v-16.1h-16.1h-16.1v-16.1h16.1v-16.1h16.1v16.1v16.1H362h16.1
	v-16.1v-16.1H362V640.3z M539.5,898.5h16.1v-16.1h-16.1V898.5z M620.2,898.5v16.1v16.1H604v16.1h16.1h16.1V963h16.1v-16.1v-16.1
	h-16.1v-16.1v-16.1h16.1v-16.1v-16.1h-16.1h-16.1H604v16.1h16.1V898.5z M249.1,753.2h16.1v-16.1V721h-16.1v16.1V753.2z M249.1,704.8
	h16.1v-16.1h-16.1V704.8z M232.9,704.8h16.1V721h-16.1v16.1v16.1v16.1h16.1h16.1v-16.1h16.1h16.1v-16.1h-16.1V721h16.1h16.1v16.1
	h16.1h16.1v16.1H362v-16.1h16.1V721h16.1v-16.1h16.1V721v16.1v16.1v16.1v16.1v16.1h-16.1v-16.1h-16.1v-16.1H362v16.1h-16.1v-16.1
	h-16.1v-16.1h-16.1v16.1v16.1v16.1h-16.1h-16.1h-16.1v-16.1h-16.1h-16.1h-16.1h-16.1h-16.1v-16.1v-16.1v-16.1V721h16.1v-16.1h16.1
	v-16.1h16.1V704.8z M216.8,737.1h-16.1v16.1h16.1V737.1z M281.3,785.5h16.1v-16.1h-16.1V785.5z M410.4,656.4v-16.1h-16.1v-16.1
	h-16.1v16.1v16.1h16.1v16.1v16.1h16.1h16.1v-16.1h-16.1V656.4z M426.5,833.9v16.1h-16.1v16.1h-16.1v16.1v16.1h16.1v16.1v16.1h-16.1
	h-16.1v16.1H362v-16.1h-16.1v-16.1v-16.1v-16.1H362v-16.1h16.1v-16.1h16.1v-16.1v-16.1h16.1v16.1H426.5z M378.1,898.5H362v16.1h16.1
	V898.5z M652.4,527.3v16.1v16.1v16.1v16.1V608v16.1v16.1h-16.1h-16.1H604h-16.1h-16.1h-16.1h-16.1v-16.1V608v-16.1v-16.1v-16.1
	v-16.1v-16.1h16.1h16.1h16.1H604h16.1h16.1H652.4z M636.3,543.5h-16.1H604h-16.1h-16.1h-16.1v16.1v16.1v16.1V608v16.1h16.1h16.1H604
	h16.1h16.1V608v-16.1v-16.1v-16.1V543.5z M636.3,688.7h-16.1H604v16.1h16.1V721v16.1h16.1v16.1h-16.1v16.1v16.1v16.1h16.1v16.1
	h-16.1v16.1v16.1h16.1v-16.1h16.1v-16.1v-16.1v-16.1h-16.1v-16.1h16.1v-16.1v-16.1V721h-16.1v-16.1h16.1v-16.1v-16.1h-16.1V688.7z
	 M571.8,850.1h16.1v16.1v16.1H604v16.1v16.1h-16.1v16.1v16.1H604V963h-16.1h-16.1h-16.1v-16.1v-16.1h-16.1h-16.1v16.1h-16.1v-16.1
	v-16.1v-16.1h-16.1v-16.1h16.1v-16.1v-16.1v-16.1v-16.1v-16.1h-16.1v-16.1H475v16.1h-16.1v16.1v16.1H475v-16.1h16.1v16.1v16.1H475
	v16.1h16.1v16.1H475h-16.1v-16.1h-16.1h-16.1v-16.1h16.1v-16.1v-16.1v-16.1h-16.1v-16.1v-16.1h16.1v16.1h16.1v-16.1v-16.1h-16.1
	v-16.1h-16.1V721h16.1v-16.1h16.1v-16.1H475v16.1V721v16.1v16.1v16.1h16.1h16.1v16.1h16.1h16.1h16.1v16.1v16.1v16.1v16.1H571.8z
	 M523.4,833.9h16.1v-16.1v-16.1h-16.1v16.1V833.9z M571.8,866.2h-16.1h-16.1h-16.1v16.1v16.1v16.1h16.1h16.1h16.1v-16.1v-16.1V866.2
	z M571.8,833.9h16.1v-16.1h-16.1V833.9z M620.2,801.6v16.1H604h-16.1v-16.1v-16.1v-16.1h-16.1v16.1h-16.1v-16.1h-16.1h-16.1v-16.1
	h-16.1v-16.1V721h-16.1v-16.1h16.1v-16.1v-16.1v-16.1h-16.1v16.1H475h-16.1h-16.1h-16.1v-16.1h16.1v-16.1v-16.1h-16.1V608v-16.1
	h-16.1v-16.1h16.1h16.1v-16.1h16.1v16.1v16.1h-16.1V608h16.1H475v16.1h-16.1v16.1H475v-16.1h16.1v16.1h16.1v-16.1h-16.1V608H475
	v-16.1v-16.1v-16.1h16.1v16.1v16.1h16.1V608h16.1v16.1v16.1v16.1h16.1h16.1v16.1v16.1v16.1V721v16.1v16.1h16.1h16.1v-16.1V721H604
	v16.1v16.1v16.1v16.1v16.1H620.2z M539.5,688.7h-16.1v16.1h16.1V688.7z M587.9,559.6h-16.1v16.1v16.1V608h16.1H604h16.1v-16.1v-16.1
	v-16.1H604H587.9z M620.2,656.4H604v16.1h16.1V656.4z M216.8,672.6h16.1v-16.1h-16.1h-16.1h-16.1v16.1h16.1v16.1h16.1V672.6z
	 M507.2,575.7h16.1v-16.1v-16.1h-16.1v-16.1h-16.1v16.1v16.1h16.1V575.7z M329.7,527.3v16.1h16.1v-16.1H329.7z M362,704.8V721h16.1
	v-16.1H362z M362,801.6h-16.1h-16.1v16.1v16.1h16.1v-16.1H362h16.1v-16.1v-16.1H362V801.6z M184.5,688.7v16.1h16.1v-16.1H184.5z
	 M604,672.6h-16.1v16.1H604V672.6z M249.1,688.7v-16.1h-16.1v16.1H249.1z M362,591.9h16.1v-16.1H362v-16.1h16.1v16.1h16.1v-16.1
	v-16.1h16.1v16.1h16.1h16.1v-16.1v-16.1h-16.1h-16.1h-16.1h-16.1v16.1H362h-16.1v16.1h-16.1h-16.1v16.1h16.1v16.1h16.1V608H362
	V591.9z M345.9,608h-16.1v16.1h16.1V608z M587.9,688.7h-16.1v16.1V721h16.1v-16.1V688.7z M410.4,640.3h16.1v-16.1h-16.1V640.3z
	 M187.3,263l18-85h8.4l18.1,85h-7.9l-4.2-22.8h-20.3l-4.3,22.8H187.3z M200.6,234.4h18.1l-9.1-45.9L200.6,234.4z M242,263v-85h18.5
	c5.9,0,10.6,1,13.9,3.1c3.3,2.1,5.7,5,7,8.8c1.4,3.8,2,8.2,2,13.1v33.8c0,5.2-0.7,9.9-2,13.8c-1.4,4-3.7,7-6.9,9.2
	c-3.2,2.2-7.7,3.3-13.3,3.3H242z M250,257h10.7c4.5,0,7.8-0.9,9.9-2.8c2.1-1.9,3.4-4.4,4-7.7c0.6-3.3,0.8-6.9,0.8-11.1v-31.7
	c0-4.3-0.4-7.9-1.1-10.8c-0.7-2.9-2.2-5.1-4.3-6.6c-2.1-1.5-5.3-2.3-9.6-2.3H250V257z M291.9,263l18-85h8.4l18.1,85h-7.9l-4.2-22.8
	H304l-4.3,22.8H291.9z M305.2,234.4h18.1l-9.1-45.9L305.2,234.4z M346.6,263v-85h8V257h24.1v6H346.6z M386.7,263v-85H405
	c3.8,0,7.1,0.5,9.8,1.5c2.7,1,4.8,2.4,6.4,4.3c1.6,1.9,2.8,4.1,3.5,6.8c0.7,2.6,1.1,5.5,1.1,8.7c0,2.7-0.3,5.4-0.9,7.9
	c-0.6,2.6-1.7,4.7-3.3,6.5c-1.5,1.8-3.7,3-6.5,3.5c3.3,0.9,5.9,2.5,7.7,4.7c1.9,2.2,3.2,4.8,3.9,7.7c0.8,2.9,1.2,5.9,1.2,9
	c0,3.4-0.3,6.5-0.9,9.5c-0.6,3-1.6,5.6-3.2,7.8c-1.5,2.2-3.6,4-6.1,5.3c-2.6,1.3-5.9,1.9-9.9,1.9H386.7z M394.7,214.6h11.5
	c3.3,0,5.8-0.6,7.6-1.9c1.7-1.3,3-3.1,3.7-5.4c0.7-2.3,1-5,1-8.1c0-3.4-0.5-6.3-1.4-8.5c-0.9-2.2-2.6-3.9-4.9-4.9
	c-2.3-1.1-5.6-1.6-10-1.6h-7.6V214.6z M394.7,257h11.4c5.5,0,9.2-1.5,11.1-4.5c1.9-3,2.8-7.7,2.8-14.1c0-3.4-0.4-6.5-1.3-9.1
	c-0.8-2.7-2.3-4.7-4.3-6.2c-2-1.5-4.7-2.3-8.1-2.3h-11.7V257z M439.2,263v-85H470v6.2h-22.7v31.9h18.5v5.9h-18.5V257h22.9v6H439.2z
	 M481.1,263v-85h19.2c5.3,0,9.5,0.9,12.5,2.6c3,1.7,5.2,4.2,6.6,7.5c1.3,3.3,2,7.1,2,11.6c0,3.1-0.4,6.1-1.1,8.9
	c-0.7,2.8-1.9,5.2-3.6,7.1c-1.7,2-4.1,3.3-7.1,3.9l13,43.5h-7.8l-12.5-41.8h-13.3V263H481.1z M489.1,215.3h10.8
	c3.6,0,6.3-0.6,8.3-1.8c2-1.2,3.4-2.9,4.2-5.2s1.3-5.2,1.3-8.7c0-5.2-0.9-9.2-2.7-11.8c-1.8-2.6-5.4-3.9-10.8-3.9h-11V215.3z
	 M543.8,263v-78.9h-16.1v-6.2h39.6v6.2h-15.5V263H543.8z M596.7,264c-5.6,0-10-1.1-13.2-3.3c-3.2-2.2-5.4-5.3-6.7-9.2
	c-1.3-4-1.9-8.5-1.9-13.6v-35.3c0-5.2,0.7-9.7,2-13.5c1.4-3.8,3.6-6.8,6.8-8.9c3.2-2.1,7.5-3.1,13-3.1c5.5,0,9.9,1.1,13.1,3.1
	c3.2,2.1,5.4,5.1,6.8,8.9c1.3,3.8,2,8.3,2,13.5V238c0,5.1-0.6,9.6-1.9,13.5c-1.3,3.9-3.5,7-6.7,9.2C606.8,262.9,602.4,264,596.7,264
	z M596.7,257.6c3.8,0,6.6-0.8,8.6-2.3c2-1.5,3.3-3.6,4-6.3c0.7-2.7,1.1-5.8,1.1-9.4v-38.5c0-3.6-0.4-6.7-1.1-9.3
	c-0.7-2.7-2.1-4.7-4-6.1c-2-1.4-4.8-2.2-8.6-2.2c-3.7,0-6.6,0.7-8.6,2.2c-2,1.4-3.4,3.5-4.1,6.1c-0.7,2.7-1.1,5.8-1.1,9.3v38.5
	c0,3.6,0.4,6.7,1.1,9.4c0.7,2.7,2.1,4.8,4.1,6.3C590.2,256.9,593,257.6,596.7,257.6z M207,389l-20-85h7.7l16.1,70.5l15.1-70.5h7.6
	l-19.2,85H207z M243.5,389v-85h8v85H243.5z M266.6,389v-85h18.5c5.9,0,10.6,1,13.9,3.1c3.3,2.1,5.7,5,7,8.8c1.4,3.8,2,8.2,2,13.1
	v33.8c0,5.2-0.7,9.9-2,13.8c-1.4,4-3.7,7-6.9,9.2c-3.2,2.2-7.7,3.3-13.3,3.3H266.6z M274.6,383h10.7c4.5,0,7.8-0.9,9.9-2.8
	c2.1-1.9,3.4-4.4,4-7.7c0.6-3.3,0.8-6.9,0.8-11.1v-31.7c0-4.3-0.4-7.9-1.1-10.8c-0.7-2.9-2.2-5.1-4.3-6.6c-2.1-1.5-5.3-2.3-9.6-2.3
	h-10.4V383z M321.2,389v-85H352v6.2h-22.7v31.9h18.5v5.9h-18.5V383h22.9v6H321.2z M363.3,389v-85h8v85H363.3z M386.4,389v-85h19.2
	c5.3,0,9.5,0.9,12.5,2.6c3,1.7,5.2,4.2,6.6,7.5c1.3,3.3,2,7.1,2,11.6c0,3.1-0.4,6.1-1,8.9c-0.7,2.8-1.9,5.2-3.6,7.1
	c-1.7,2-4.1,3.3-7.1,3.9l13,43.5h-7.8l-12.5-41.8h-13.3V389H386.4z M394.4,341.3h10.8c3.6,0,6.3-0.6,8.3-1.8c2-1.2,3.4-2.9,4.2-5.2
	c0.8-2.3,1.3-5.2,1.3-8.7c0-5.2-0.9-9.2-2.7-11.8c-1.8-2.6-5.4-3.9-10.8-3.9h-11V341.3z M435.6,389l18-85h8.4l18.1,85h-7.9
	l-4.2-22.8h-20.3l-4.3,22.8H435.6z M448.8,360.4h18.1l-9.1-45.9L448.8,360.4z M207.7,105.3h-8.2v22.8h-3.4v-22.8h-8.2v-2.8h19.8
	V105.3z M225.9,116.3h-11.1v9.1h12.9v2.8h-16.3v-25.6h16.1v2.8h-12.7v8.2h11.1V116.3z M250.8,120c-0.3,2.7-1.3,4.8-3,6.3
	s-3.9,2.2-6.7,2.2c-3,0-5.4-1.1-7.3-3.3s-2.7-5.1-2.7-8.7v-2.5c0-2.4,0.4-4.5,1.3-6.3s2.1-3.2,3.6-4.2s3.4-1.5,5.4-1.5
	c2.7,0,4.9,0.8,6.5,2.3s2.6,3.6,2.9,6.3h-3.4c-0.3-2-0.9-3.5-1.9-4.4c-1-0.9-2.3-1.4-4.1-1.4c-2.2,0-3.8,0.8-5.1,2.4
	c-1.2,1.6-1.8,3.9-1.8,6.8v2.5c0,2.8,0.6,5,1.7,6.6s2.8,2.5,4.9,2.5c1.9,0,3.3-0.4,4.3-1.3s1.7-2.3,2-4.4H250.8z M275,128.1h-3.4
	v-11.8h-12.9v11.8h-3.4v-25.6h3.4v11h12.9v-11h3.4V128.1z M300.7,128.1h-3.4l-12.9-19.7v19.7H281v-25.6h3.4l12.9,19.8v-19.8h3.4
	V128.1z M310.3,128.1h-3.4v-25.6h3.4V128.1z M335.3,120c-0.3,2.7-1.3,4.8-3,6.3s-3.9,2.2-6.7,2.2c-3,0-5.4-1.1-7.3-3.3
	s-2.7-5.1-2.7-8.7v-2.5c0-2.4,0.4-4.5,1.3-6.3s2.1-3.2,3.6-4.2s3.4-1.5,5.4-1.5c2.7,0,4.9,0.8,6.5,2.3s2.6,3.6,2.9,6.3h-3.4
	c-0.3-2-0.9-3.5-1.9-4.4c-1-0.9-2.3-1.4-4.1-1.4c-2.2,0-3.8,0.8-5.1,2.4c-1.2,1.6-1.8,3.9-1.8,6.8v2.5c0,2.8,0.6,5,1.7,6.6
	s2.8,2.5,4.9,2.5c1.9,0,3.3-0.4,4.3-1.3s1.7-2.3,2-4.4H335.3z M354.1,121.4h-10.7l-2.4,6.7h-3.5l9.8-25.6h3l9.8,25.6h-3.5
	L354.1,121.4z M344.4,118.7h8.7l-4.4-12L344.4,118.7z M366.8,125.4h12.1v2.8h-15.5v-25.6h3.4V125.4z M405.8,121.4h-10.7l-2.4,6.7
	h-3.5l9.8-25.6h3l9.8,25.6h-3.5L405.8,121.4z M396.1,118.7h8.7l-4.4-12L396.1,118.7z M424.6,117.8h-6v10.4h-3.4v-25.6h8.5
	c2.9,0,5.1,0.7,6.7,2s2.3,3.2,2.3,5.7c0,1.6-0.4,3-1.3,4.2s-2.1,2.1-3.6,2.7l6,10.9v0.2h-3.6L424.6,117.8z M418.5,115h5.2
	c1.7,0,3-0.4,4-1.3c1-0.9,1.5-2,1.5-3.5c0-1.6-0.5-2.8-1.4-3.6s-2.3-1.3-4.1-1.3h-5.2V115z M453.6,105.3h-8.2v22.8H442v-22.8h-8.2
	v-2.8h19.8V105.3z M461,128.1h-3.4v-25.6h3.4V128.1z M474.7,116.7c-2.9-0.8-5-1.9-6.3-3.1s-2-2.7-2-4.5c0-2,0.8-3.7,2.4-5
	s3.7-2,6.3-2c1.8,0,3.3,0.3,4.7,1s2.4,1.6,3.2,2.8s1.1,2.5,1.1,3.9h-3.4c0-1.6-0.5-2.8-1.5-3.7s-2.4-1.3-4.2-1.3
	c-1.7,0-3,0.4-3.9,1.1c-0.9,0.7-1.4,1.8-1.4,3.1c0,1,0.4,1.9,1.3,2.7c0.9,0.7,2.4,1.4,4.5,2c2.1,0.6,3.8,1.3,5,2s2.1,1.6,2.7,2.5
	s0.9,2.1,0.9,3.4c0,2.1-0.8,3.7-2.4,5s-3.8,1.9-6.5,1.9c-1.8,0-3.4-0.3-4.9-1c-1.5-0.7-2.7-1.6-3.5-2.8s-1.2-2.5-1.2-4h3.4
	c0,1.5,0.6,2.8,1.7,3.7s2.7,1.3,4.6,1.3c1.8,0,3.1-0.4,4.1-1.1s1.4-1.7,1.4-3s-0.4-2.2-1.3-2.9S477.1,117.4,474.7,116.7z
	 M506.2,105.3H498v22.8h-3.4v-22.8h-8.2v-2.8h19.8V105.3z M155.7,1165.1c-0.2-0.4-0.3-1-0.5-2c-1.5,1.6-3.3,2.4-5.4,2.4
	c-1.9,0-3.4-0.5-4.6-1.6s-1.8-2.4-1.8-4c0-2,0.8-3.5,2.3-4.6s3.6-1.6,6.4-1.6h3.2v-1.5c0-1.1-0.3-2-1-2.7s-1.7-1-3-1
	c-1.2,0-2.1,0.3-2.9,0.9s-1.2,1.3-1.2,2.1h-3.3c0-0.9,0.3-1.9,1-2.8s1.6-1.6,2.7-2.1s2.4-0.8,3.8-0.8c2.2,0,3.9,0.5,5.2,1.6
	s1.9,2.6,1.9,4.5v8.8c0,1.7,0.2,3.1,0.7,4.2v0.3H155.7z M150.3,1162.6c1,0,2-0.3,2.9-0.8s1.6-1.2,2-2.1v-3.9h-2.5c-4,0-6,1.2-6,3.5
	c0,1,0.3,1.8,1,2.4S149.3,1162.6,150.3,1162.6z M162.8,1155.4c0-2.9,0.7-5.3,2.1-7s3.2-2.7,5.4-2.7c2.2,0,4,0.8,5.3,2.3v-9.9h3.3v27
	h-3l-0.2-2c-1.3,1.6-3.1,2.4-5.4,2.4c-2.2,0-4-0.9-5.4-2.7s-2.1-4.2-2.1-7.1V1155.4z M166,1155.8c0,2.2,0.4,3.8,1.3,5.1
	s2.1,1.8,3.7,1.8c2.1,0,3.6-0.9,4.5-2.8v-8.7c-1-1.8-2.5-2.7-4.5-2.7c-1.6,0-2.8,0.6-3.7,1.8S166,1153.4,166,1155.8z M195.6,1165.1
	c-0.2-0.4-0.3-1-0.5-2c-1.5,1.6-3.3,2.4-5.4,2.4c-1.9,0-3.4-0.5-4.6-1.6s-1.8-2.4-1.8-4c0-2,0.8-3.5,2.3-4.6s3.6-1.6,6.4-1.6h3.2
	v-1.5c0-1.1-0.3-2-1-2.7s-1.7-1-3-1c-1.2,0-2.1,0.3-2.9,0.9s-1.2,1.3-1.2,2.1h-3.3c0-0.9,0.3-1.9,1-2.8s1.6-1.6,2.7-2.1
	s2.4-0.8,3.8-0.8c2.2,0,3.9,0.5,5.2,1.6s1.9,2.6,1.9,4.5v8.8c0,1.7,0.2,3.1,0.7,4.2v0.3H195.6z M190.2,1162.6c1,0,2-0.3,2.9-0.8
	s1.6-1.2,2-2.1v-3.9h-2.5c-4,0-6,1.2-6,3.5c0,1,0.3,1.8,1,2.4S189.1,1162.6,190.2,1162.6z M207,1165.1h-3.3v-27h3.3V1165.1z
	 M228.3,1155.8c0,2.9-0.7,5.2-2,7s-3.1,2.6-5.4,2.6c-2.4,0-4.3-0.8-5.6-2.5l-0.2,2.2h-3v-27h3.3v10.1c1.3-1.6,3.1-2.4,5.4-2.4
	s4.1,0.9,5.4,2.6s2,4.1,2,7.2V1155.8z M225,1155.4c0-2.2-0.4-3.9-1.3-5.1s-2.1-1.8-3.7-1.8c-2.1,0-3.7,1-4.6,3v8.2c1,2,2.5,3,4.7,3
	c1.6,0,2.8-0.6,3.6-1.8S225,1157.9,225,1155.4z M240.3,1165.4c-2.6,0-4.7-0.8-6.3-2.5s-2.4-4-2.4-6.8v-0.6c0-1.9,0.4-3.6,1.1-5.1
	s1.7-2.6,3-3.5s2.7-1.3,4.2-1.3c2.5,0,4.4,0.8,5.8,2.4s2.1,4,2.1,7v1.4h-12.9c0,1.9,0.6,3.4,1.6,4.5s2.4,1.7,4,1.7
	c1.1,0,2.1-0.2,2.9-0.7s1.5-1.1,2.1-1.9l2,1.5C245.8,1164.2,243.5,1165.4,240.3,1165.4z M239.9,1148.4c-1.3,0-2.4,0.5-3.3,1.4
	s-1.4,2.3-1.7,4h9.5v-0.2c-0.1-1.7-0.5-2.9-1.3-3.8S241.2,1148.4,239.9,1148.4z M260.6,1149c-0.5-0.1-1-0.1-1.6-0.1
	c-2.1,0-3.6,0.9-4.3,2.7v13.5h-3.3v-19h3.2l0.1,2.2c1.1-1.7,2.6-2.5,4.5-2.5c0.6,0,1.1,0.1,1.4,0.2V1149z M268.9,1141.5v4.6h3.6v2.5
	h-3.6v11.8c0,0.8,0.2,1.3,0.5,1.7c0.3,0.4,0.9,0.6,1.6,0.6c0.4,0,0.9-0.1,1.5-0.2v2.6c-0.9,0.2-1.7,0.3-2.5,0.3
	c-1.5,0-2.5-0.4-3.3-1.3s-1.1-2.1-1.1-3.7v-11.8h-3.5v-2.5h3.5v-4.6H268.9z M275.1,1155.4c0-1.9,0.4-3.5,1.1-5s1.8-2.6,3.1-3.4
	s2.8-1.2,4.5-1.2c2.6,0,4.7,0.9,6.3,2.7s2.4,4.2,2.4,7.2v0.2c0,1.9-0.4,3.5-1.1,5s-1.7,2.6-3,3.4s-2.8,1.2-4.5,1.2
	c-2.6,0-4.7-0.9-6.3-2.7s-2.4-4.2-2.4-7.1V1155.4z M278.3,1155.8c0,2.1,0.5,3.8,1.5,5.1s2.3,1.9,3.9,1.9c1.7,0,3-0.6,3.9-1.9
	s1.5-3.1,1.5-5.4c0-2.1-0.5-3.8-1.5-5.1s-2.3-1.9-3.9-1.9c-1.6,0-2.9,0.6-3.9,1.9S278.3,1153.4,278.3,1155.8z M302.5,1160.7
	l4.7-14.6h3.3l-6.8,19h-2.5l-6.9-19h3.3L302.5,1160.7z M313.6,1141c0-0.5,0.2-1,0.5-1.3s0.8-0.5,1.4-0.5s1.1,0.2,1.4,0.5
	s0.5,0.8,0.5,1.3s-0.2,1-0.5,1.3s-0.8,0.5-1.4,0.5s-1.1-0.2-1.4-0.5S313.6,1141.6,313.6,1141z M317.2,1165.1h-3.3v-19h3.3V1165.1z
	 M321.6,1155.4c0-2.9,0.7-5.3,2.1-7s3.2-2.7,5.4-2.7c2.2,0,4,0.8,5.3,2.3v-9.9h3.3v27h-3l-0.2-2c-1.3,1.6-3.1,2.4-5.4,2.4
	c-2.2,0-4-0.9-5.4-2.7s-2.1-4.2-2.1-7.1V1155.4z M324.8,1155.8c0,2.2,0.4,3.8,1.3,5.1s2.1,1.8,3.7,1.8c2.1,0,3.6-0.9,4.5-2.8v-8.7
	c-1-1.8-2.5-2.7-4.5-2.7c-1.6,0-2.8,0.6-3.7,1.8S324.8,1153.4,324.8,1155.8z M350.6,1165.4c-2.6,0-4.7-0.8-6.3-2.5s-2.4-4-2.4-6.8
	v-0.6c0-1.9,0.4-3.6,1.1-5.1s1.7-2.6,3-3.5s2.7-1.3,4.2-1.3c2.5,0,4.4,0.8,5.8,2.4s2.1,4,2.1,7v1.4h-12.9c0,1.9,0.6,3.4,1.6,4.5
	s2.4,1.7,4,1.7c1.1,0,2.1-0.2,2.9-0.7s1.5-1.1,2.1-1.9l2,1.5C356.1,1164.2,353.7,1165.4,350.6,1165.4z M350.2,1148.4
	c-1.3,0-2.4,0.5-3.3,1.4s-1.4,2.3-1.7,4h9.5v-0.2c-0.1-1.7-0.5-2.9-1.3-3.8S351.5,1148.4,350.2,1148.4z M361.8,1141
	c0-0.5,0.2-1,0.5-1.3s0.8-0.5,1.4-0.5s1.1,0.2,1.4,0.5s0.5,0.8,0.5,1.3s-0.2,1-0.5,1.3s-0.8,0.5-1.4,0.5s-1.1-0.2-1.4-0.5
	S361.8,1141.6,361.8,1141z M365.3,1165.1H362v-19h3.3V1165.1z M379.7,1149c-0.5-0.1-1-0.1-1.6-0.1c-2.1,0-3.6,0.9-4.3,2.7v13.5h-3.3
	v-19h3.2l0.1,2.2c1.1-1.7,2.6-2.5,4.5-2.5c0.6,0,1.1,0.1,1.4,0.2V1149z M393.7,1165.1c-0.2-0.4-0.3-1-0.5-2
	c-1.5,1.6-3.3,2.4-5.4,2.4c-1.9,0-3.4-0.5-4.6-1.6s-1.8-2.4-1.8-4c0-2,0.8-3.5,2.3-4.6s3.6-1.6,6.4-1.6h3.2v-1.5c0-1.1-0.3-2-1-2.7
	s-1.7-1-3-1c-1.2,0-2.1,0.3-2.9,0.9s-1.2,1.3-1.2,2.1h-3.3c0-0.9,0.3-1.9,1-2.8s1.6-1.6,2.7-2.1s2.4-0.8,3.8-0.8
	c2.2,0,3.9,0.5,5.2,1.6s1.9,2.6,1.9,4.5v8.8c0,1.7,0.2,3.1,0.7,4.2v0.3H393.7z M388.3,1162.6c1,0,2-0.3,2.9-0.8s1.6-1.2,2-2.1v-3.9
	h-2.5c-4,0-6,1.2-6,3.5c0,1,0.3,1.8,1,2.4S387.2,1162.6,388.3,1162.6z M401.6,1163.4c0-0.6,0.2-1,0.5-1.4s0.8-0.6,1.5-0.6
	s1.2,0.2,1.5,0.6s0.5,0.8,0.5,1.4c0,0.5-0.2,1-0.5,1.4s-0.9,0.5-1.5,0.5s-1.2-0.2-1.5-0.5S401.6,1163.9,401.6,1163.4z M410.2,1155.4
	c0-3,0.7-5.3,2.1-7.1s3.2-2.6,5.4-2.6c2.3,0,4.1,0.8,5.4,2.5l0.2-2.1h3v18.6c0,2.5-0.7,4.4-2.2,5.8s-3.4,2.1-5.9,2.1
	c-1.4,0-2.7-0.3-4-0.9s-2.3-1.4-3-2.4l1.7-2c1.4,1.7,3.1,2.6,5.1,2.6c1.6,0,2.8-0.4,3.7-1.3s1.3-2.1,1.3-3.8v-1.6
	c-1.3,1.5-3.1,2.2-5.3,2.2c-2.2,0-4-0.9-5.4-2.7S410.2,1158.5,410.2,1155.4z M413.5,1155.8c0,2.1,0.4,3.8,1.3,5.1s2.1,1.8,3.7,1.8
	c2.1,0,3.6-0.9,4.5-2.8v-8.7c-1-1.8-2.5-2.7-4.5-2.7c-1.6,0-2.8,0.6-3.7,1.8S413.5,1153.4,413.5,1155.8z M431.2,1141
	c0-0.5,0.2-1,0.5-1.3s0.8-0.5,1.4-0.5s1.1,0.2,1.4,0.5s0.5,0.8,0.5,1.3s-0.2,1-0.5,1.3s-0.8,0.5-1.4,0.5s-1.1-0.2-1.4-0.5
	S431.2,1141.6,431.2,1141z M434.7,1165.1h-3.3v-19h3.3V1165.1z M444.4,1141.5v4.6h3.6v2.5h-3.6v11.8c0,0.8,0.2,1.3,0.5,1.7
	c0.3,0.4,0.9,0.6,1.6,0.6c0.4,0,0.9-0.1,1.5-0.2v2.6c-0.9,0.2-1.7,0.3-2.5,0.3c-1.5,0-2.5-0.4-3.3-1.3s-1.1-2.1-1.1-3.7v-11.8h-3.5
	v-2.5h3.5v-4.6H444.4z M455,1148.4c1.4-1.8,3.3-2.7,5.6-2.7c4,0,6,2.3,6.1,6.8v12.6h-3.3v-12.6c0-1.4-0.3-2.4-0.9-3s-1.6-1-2.9-1
	c-1.1,0-2,0.3-2.8,0.8s-1.4,1.3-1.9,2.2v13.6h-3.3v-27h3.3V1148.4z M483.3,1163.2c-1.3,1.5-3.1,2.2-5.6,2.2c-2,0-3.6-0.6-4.6-1.8
	s-1.6-2.9-1.6-5.2v-12.4h3.3v12.3c0,2.9,1.2,4.3,3.5,4.3c2.5,0,4.1-0.9,5-2.8v-13.8h3.3v19h-3.1L483.3,1163.2z M507.5,1155.8
	c0,2.9-0.7,5.2-2,7s-3.1,2.6-5.4,2.6c-2.4,0-4.3-0.8-5.6-2.5l-0.2,2.2h-3v-27h3.3v10.1c1.3-1.6,3.1-2.4,5.4-2.4s4.1,0.9,5.4,2.6
	s2,4.1,2,7.2V1155.8z M504.2,1155.4c0-2.2-0.4-3.9-1.3-5.1s-2.1-1.8-3.7-1.8c-2.1,0-3.7,1-4.6,3v8.2c1,2,2.5,3,4.7,3
	c1.6,0,2.8-0.6,3.6-1.8S504.2,1157.9,504.2,1155.4z M511.6,1163.4c0-0.6,0.2-1,0.5-1.4s0.8-0.6,1.5-0.6s1.2,0.2,1.5,0.6
	s0.5,0.8,0.5,1.4c0,0.5-0.2,1-0.5,1.4s-0.9,0.5-1.5,0.5s-1.2-0.2-1.5-0.5S511.6,1163.9,511.6,1163.4z M521.1,1141
	c0-0.5,0.2-1,0.5-1.3s0.8-0.5,1.4-0.5s1.1,0.2,1.4,0.5s0.5,0.8,0.5,1.3s-0.2,1-0.5,1.3s-0.8,0.5-1.4,0.5s-1.1-0.2-1.4-0.5
	S521.1,1141.6,521.1,1141z M524.6,1165.1h-3.3v-19h3.3V1165.1z M528.9,1155.4c0-1.9,0.4-3.5,1.1-5s1.8-2.6,3.1-3.4s2.8-1.2,4.5-1.2
	c2.6,0,4.7,0.9,6.3,2.7s2.4,4.2,2.4,7.2v0.2c0,1.9-0.4,3.5-1.1,5s-1.7,2.6-3,3.4s-2.8,1.2-4.5,1.2c-2.6,0-4.7-0.9-6.3-2.7
	s-2.4-4.2-2.4-7.1V1155.4z M532.2,1155.8c0,2.1,0.5,3.8,1.5,5.1s2.3,1.9,3.9,1.9c1.7,0,3-0.6,3.9-1.9s1.5-3.1,1.5-5.4
	c0-2.1-0.5-3.8-1.5-5.1s-2.3-1.9-3.9-1.9c-1.6,0-2.9,0.6-3.9,1.9S532.2,1153.4,532.2,1155.8z M551,1167.3h-2.8l10.7-27.8h2.8
	L551,1167.3z M581.2,1155.8c0,2.9-0.7,5.2-2,7s-3.1,2.7-5.4,2.7c-2.3,0-4.1-0.7-5.4-2.2v9.2h-3.3v-26.3h3l0.2,2.1
	c1.3-1.6,3.2-2.5,5.5-2.5c2.3,0,4.1,0.9,5.4,2.6s2,4.1,2,7.2V1155.8z M578,1155.4c0-2.1-0.5-3.8-1.4-5.1s-2.2-1.9-3.8-1.9
	c-2,0-3.4,0.9-4.4,2.6v9.1c1,1.7,2.5,2.6,4.5,2.6c1.6,0,2.8-0.6,3.7-1.9S578,1157.9,578,1155.4z M584.5,1155.4c0-1.9,0.4-3.5,1.1-5
	s1.8-2.6,3.1-3.4s2.8-1.2,4.5-1.2c2.6,0,4.7,0.9,6.3,2.7s2.4,4.2,2.4,7.2v0.2c0,1.9-0.4,3.5-1.1,5s-1.7,2.6-3,3.4s-2.8,1.2-4.5,1.2
	c-2.6,0-4.7-0.9-6.3-2.7s-2.4-4.2-2.4-7.1V1155.4z M587.8,1155.8c0,2.1,0.5,3.8,1.5,5.1s2.3,1.9,3.9,1.9c1.7,0,3-0.6,3.9-1.9
	s1.5-3.1,1.5-5.4c0-2.1-0.5-3.8-1.5-5.1s-2.3-1.9-3.9-1.9c-1.6,0-2.9,0.6-3.9,1.9S587.8,1153.4,587.8,1155.8z M615.1,1149
	c-0.5-0.1-1-0.1-1.6-0.1c-2.1,0-3.6,0.9-4.3,2.7v13.5h-3.3v-19h3.2l0.1,2.2c1.1-1.7,2.6-2.5,4.5-2.5c0.6,0,1.1,0.1,1.4,0.2V1149z
	 M623.4,1141.5v4.6h3.6v2.5h-3.6v11.8c0,0.8,0.2,1.3,0.5,1.7c0.3,0.4,0.9,0.6,1.6,0.6c0.4,0,0.9-0.1,1.5-0.2v2.6
	c-0.9,0.2-1.7,0.3-2.5,0.3c-1.5,0-2.5-0.4-3.3-1.3s-1.1-2.1-1.1-3.7v-11.8h-3.5v-2.5h3.5v-4.6H623.4z M632.3,1165.1v-16.5h-3v-2.5h3
	v-2c0-2,0.5-3.6,1.6-4.7s2.6-1.7,4.6-1.7c0.8,0,1.5,0.1,2.2,0.3l-0.2,2.6c-0.6-0.1-1.1-0.2-1.8-0.2c-1.1,0-1.9,0.3-2.4,0.9
	s-0.9,1.5-0.9,2.7v2h4.1v2.5h-4.1v16.5H632.3z M642.3,1155.4c0-1.9,0.4-3.5,1.1-5s1.8-2.6,3.1-3.4s2.8-1.2,4.5-1.2
	c2.6,0,4.7,0.9,6.3,2.7s2.4,4.2,2.4,7.2v0.2c0,1.9-0.4,3.5-1.1,5s-1.7,2.6-3,3.4s-2.8,1.2-4.5,1.2c-2.6,0-4.7-0.9-6.3-2.7
	s-2.4-4.2-2.4-7.1V1155.4z M645.6,1155.8c0,2.1,0.5,3.8,1.5,5.1s2.3,1.9,3.9,1.9c1.7,0,3-0.6,3.9-1.9s1.5-3.1,1.5-5.4
	c0-2.1-0.5-3.8-1.5-5.1s-2.3-1.9-3.9-1.9c-1.6,0-2.9,0.6-3.9,1.9S645.6,1153.4,645.6,1155.8z M667.3,1165.1H664v-27h3.3V1165.1z
	 M672.5,1141c0-0.5,0.2-1,0.5-1.3s0.8-0.5,1.4-0.5s1.1,0.2,1.4,0.5s0.5,0.8,0.5,1.3s-0.2,1-0.5,1.3s-0.8,0.5-1.4,0.5
	s-1.1-0.2-1.4-0.5S672.5,1141.6,672.5,1141z M676,1165.1h-3.3v-19h3.3V1165.1z M680.3,1155.4c0-1.9,0.4-3.5,1.1-5s1.8-2.6,3.1-3.4
	s2.8-1.2,4.5-1.2c2.6,0,4.7,0.9,6.3,2.7s2.4,4.2,2.4,7.2v0.2c0,1.9-0.4,3.5-1.1,5s-1.7,2.6-3,3.4s-2.8,1.2-4.5,1.2
	c-2.6,0-4.7-0.9-6.3-2.7s-2.4-4.2-2.4-7.1V1155.4z M683.6,1155.8c0,2.1,0.5,3.8,1.5,5.1s2.3,1.9,3.9,1.9c1.7,0,3-0.6,3.9-1.9
	s1.5-3.1,1.5-5.4c0-2.1-0.5-3.8-1.5-5.1s-2.3-1.9-3.9-1.9c-1.6,0-2.9,0.6-3.9,1.9S683.6,1153.4,683.6,1155.8z"/>
</svg>
